<svg width="43" height="8" viewBox="0 0 43 8" fill="none" xmlns="http://www.w3.org/2000/svg">
<path d="M2.10011 7.72685C1.14523 7.72685 0.363037 6.93624 0.363037 5.97333V0.246513C0.363037 0.175562 0.423987 0.114746 0.495095 0.114746H1.31792V6.06455C1.31792 6.5004 1.67346 6.85516 2.10011 6.85516H5.26951C5.34062 6.85516 5.40157 6.91597 5.40157 6.98692V7.72685H2.10011ZM6.55962 7.72685C6.48851 7.72685 6.42756 7.66603 6.42756 7.59508V0.114746H7.25039C7.3215 0.114746 7.38245 0.175562 7.38245 0.246513V7.72685H6.55962ZM9.38364 7.72685C9.05857 7.72685 8.79445 7.46331 8.79445 7.13896V0.68236C8.79445 0.368145 9.04841 0.114746 9.36332 0.114746H9.52585H12.614C13.5689 0.114746 14.3409 0.885079 14.3409 1.83786V2.60819C14.3409 3.09472 13.9549 3.74342 13.4063 3.85491C13.9549 3.99682 14.3409 4.61511 14.3409 5.10164V5.9936C14.3409 6.94638 13.5689 7.72685 12.614 7.72685H9.38364ZM13.386 6.07469V5.06109C13.386 4.63538 13.0406 4.29076 12.614 4.29076H9.74934V6.66257C9.74934 6.76393 9.8306 6.85516 9.94234 6.85516H12.614C13.0406 6.85516 13.386 6.5004 13.386 6.07469ZM9.74934 1.17902V3.41907H12.614C13.0406 3.41907 13.386 3.07444 13.386 2.64873V1.75677C13.386 1.33106 13.0406 0.986438 12.614 0.986438H9.94234C9.8306 0.986438 9.74934 1.06753 9.74934 1.17902ZM16.464 4.0779H16.4437V7.59508C16.4437 7.66603 16.3827 7.72685 16.3116 7.72685H15.4888V0.702631C15.4888 0.378281 15.7529 0.114746 16.078 0.114746H19.2677C20.2226 0.114746 20.9946 0.712767 20.9946 1.74663V2.72982C20.9946 3.62179 20.3546 4.10831 19.6131 4.3009L21.2384 7.72685H20.3546C20.2835 7.72685 20.2023 7.66603 20.1718 7.60522L18.6277 4.35158H17.3275H17.0329C16.7484 4.35158 16.5351 4.27049 16.464 4.0779ZM16.6367 3.47988H19.2677C19.6943 3.47988 20.0397 3.13526 20.0397 2.70955V1.75677C20.0397 1.33106 19.6943 0.986438 19.2677 0.986438H16.6367C16.5249 0.986438 16.4437 1.07766 16.4437 1.17902V3.2873C16.4437 3.3988 16.5351 3.47988 16.6367 3.47988ZM26.1855 0.185698L28.847 7.72685H28.014C27.9226 7.72685 27.8515 7.66603 27.8312 7.59508L27.1506 5.63884H23.2701L22.5895 7.59508C22.5692 7.66603 22.4879 7.72685 22.4066 7.72685H21.5736L24.0523 0.68236C24.1742 0.347873 24.4891 0.114746 24.8548 0.114746H26.0636C26.1144 0.114746 26.1652 0.145154 26.1855 0.185698ZM23.5748 4.76715H26.8458L25.5252 0.986438H25.0275C24.9462 0.986438 24.8751 1.03712 24.8446 1.11821L23.5748 4.76715ZM30.6145 4.0779H30.5942V7.59508C30.5942 7.66603 30.5333 7.72685 30.4622 7.72685H29.6394V0.702631C29.6394 0.378281 29.9035 0.114746 30.2285 0.114746H33.4183C34.3731 0.114746 35.1452 0.712767 35.1452 1.74663V2.72982C35.1452 3.62179 34.5052 4.10831 33.7636 4.3009L35.389 7.72685H34.5052C34.4341 7.72685 34.3528 7.66603 34.3223 7.60522L32.7783 4.35158H31.478H31.1834C30.899 4.35158 30.6857 4.27049 30.6145 4.0779ZM30.7872 3.47988H33.4183C33.8449 3.47988 34.1903 3.13526 34.1903 2.70955V1.75677C34.1903 1.33106 33.8449 0.986438 33.4183 0.986438H30.7872C30.6755 0.986438 30.5942 1.07766 30.5942 1.17902V3.2873C30.5942 3.3988 30.6857 3.47988 30.7872 3.47988ZM41.4027 0.114746H42.2966L40.7424 4.05763C40.6307 4.36171 40.3869 4.63538 39.9907 4.63538H39.5336V7.59508C39.5336 7.66603 39.4726 7.72685 39.4015 7.72685H38.5685V4.63538L38.1622 4.62525C37.7254 4.62525 37.4714 4.36171 37.3597 4.05763L35.8055 0.114746H36.6994C36.7705 0.114746 36.8518 0.175562 36.8822 0.236377L38.152 3.55083C38.1927 3.65219 38.3146 3.73328 38.4162 3.73328H39.6859C39.7875 3.73328 39.9094 3.65219 39.9501 3.55083L41.2199 0.236377C41.2503 0.175562 41.3316 0.114746 41.4027 0.114746Z" fill="white"/>
</svg>
