<svg width="153" height="24" viewBox="0 0 153 24" fill="none" xmlns="http://www.w3.org/2000/svg">
<path d="M0 23.4267V0.707031H7.84479C12.1661 0.707031 14.5594 3.32726 14.5594 6.57766C14.5594 8.5677 13.4292 10.5909 11.5013 11.5528C14.4929 12.0503 16.1217 14.3057 16.1217 16.8927C16.1217 20.6075 13.396 23.4267 9.54006 23.4267H0ZM7.94451 2.33223H1.76175V11.0221H7.81154C11.2021 11.0221 12.7976 9.03205 12.7976 6.67716C12.7976 4.32228 11.1356 2.33223 7.94451 2.33223ZM9.44034 12.6473H1.76175V21.8015H9.30737C12.7976 21.8015 14.3599 19.5793 14.3599 17.0254C14.3599 14.6705 12.7312 12.6473 9.44034 12.6473ZM26.3266 6.57766C31.1465 6.57766 34.8694 10.2924 34.8694 15.1017C34.8694 19.9441 31.1465 23.6589 26.3266 23.6589C21.4734 23.6589 17.7505 19.9441 17.7505 15.1017C17.7505 10.2924 21.4734 6.57766 26.3266 6.57766ZM26.3266 8.13653C22.3377 8.13653 19.3793 11.1879 19.3793 15.1348C19.3793 19.0486 22.3377 22.1 26.3266 22.1C30.2822 22.1 33.2406 19.0486 33.2406 15.1348C33.2406 11.1879 30.2822 8.13653 26.3266 8.13653ZM45.1075 6.57766C49.9274 6.57766 53.6504 10.2924 53.6504 15.1017C53.6504 19.9441 49.9274 23.6589 45.1075 23.6589C40.2544 23.6589 36.5314 19.9441 36.5314 15.1017C36.5314 10.2924 40.2544 6.57766 45.1075 6.57766ZM45.1075 8.13653C41.1186 8.13653 38.1602 11.1879 38.1602 15.1348C38.1602 19.0486 41.1186 22.1 45.1075 22.1C49.0632 22.1 52.0216 19.0486 52.0216 15.1348C52.0216 11.1879 49.0632 8.13653 45.1075 8.13653ZM57.4398 14.9358L64.9189 6.843H66.9134L59.1683 15.168L68.376 23.4267H66.0823L57.4398 15.6655V23.4267H55.811V0.707031H57.4398V14.9358ZM89.6832 23.4267L83.8328 3.42676L78.0157 23.4267H76.121L69.7056 0.707031H71.5006L77.1515 20.9723L83.0018 0.707031H84.8301L90.6804 20.9391L96.3313 0.707031H98.0931L91.5779 23.4267H89.6832ZM108.165 6.57766C112.985 6.57766 116.708 10.2924 116.708 15.1017C116.708 19.9441 112.985 23.6589 108.165 23.6589C103.312 23.6589 99.5889 19.9441 99.5889 15.1017C99.5889 10.2924 103.312 6.57766 108.165 6.57766ZM108.165 8.13653C104.176 8.13653 101.218 11.1879 101.218 15.1348C101.218 19.0486 104.176 22.1 108.165 22.1C112.121 22.1 115.079 19.0486 115.079 15.1348C115.079 11.1879 112.121 8.13653 108.165 8.13653ZM126.048 6.57766V8.3687C122.857 8.3687 120.497 10.7899 120.497 14.4052V23.4267H118.868V6.843H120.497V9.92756C121.129 8.6672 122.924 6.57766 126.048 6.57766ZM129.838 6.843V9.26422C130.636 7.90436 132.331 6.57766 135.057 6.57766C137.616 6.57766 139.577 7.83802 140.508 9.92756C141.406 8.23603 143.234 6.57766 146.325 6.57766C149.982 6.57766 152.375 9.09838 152.375 13.0121V23.4267H150.746V13.1448C150.746 9.9939 149.018 8.13653 146.159 8.13653C143.167 8.13653 141.106 10.0602 141.106 13.3438V23.4267H139.478V13.1448C139.478 9.9939 137.749 8.13653 134.89 8.13653C131.832 8.13653 129.838 10.1597 129.838 13.576V23.4267H128.209V6.843H129.838Z" fill="white"/>
</svg>
