<svg width="52" height="43" viewBox="0 0 52 43" fill="none" xmlns="http://www.w3.org/2000/svg">
<path fill-rule="evenodd" clip-rule="evenodd" d="M19.3329 7.81235C21.8267 8.0528 24.6536 7.86191 27.1621 8.66039C32.7723 10.4466 34.379 15.9104 31.0849 20.8325C27.788 25.7586 20.3205 27.9721 14.8841 25.6353C11.6487 24.2444 10.051 21.6738 10.1515 18.0372C10.169 17.4094 10.1537 16.7815 10.1537 15.8642C9.37266 16.4724 8.84781 17.0524 8.19316 17.3396C7.6085 17.5963 6.70836 17.8069 6.26309 17.5305C5.79242 17.2371 5.41092 16.3102 5.48541 15.7229C5.76646 13.4986 6.93748 11.7169 8.81677 10.4837C10.1012 9.6402 11.3174 10.3069 11.4602 11.8532C11.5014 12.3054 11.4664 12.7643 11.4664 13.3094C13.2616 11.8419 14.9721 10.4438 17.0433 8.75049C16.0207 8.94645 15.3937 9.21336 14.8085 9.14016C14.1657 9.06076 13.4275 8.79948 13.0003 8.35688C12.8005 8.15078 13.0669 7.16703 13.4111 6.82129C15.3689 4.85323 17.7538 3.71519 20.5722 3.76136C21.8871 3.78276 22.3239 4.81719 21.452 5.84092C20.7398 6.67995 19.8351 7.35511 19.3329 7.81235Z" fill="white"/>
<path fill-rule="evenodd" clip-rule="evenodd" d="M36.3118 20.8425C39.9361 20.8448 41.7482 23.5939 40.0698 26.928C38.3632 30.3196 35.5443 32.4268 31.5984 32.5529C27.7704 32.6751 26.4554 30.1777 27.6485 26.7225C28.7665 23.4846 32.8862 20.8408 36.3118 20.8425Z" fill="white"/>
<path fill-rule="evenodd" clip-rule="evenodd" d="M39.9158 18.7873C36.6454 18.7647 33.7311 15.7752 33.7395 12.4517C33.7452 9.99829 35.4749 8.18509 37.7949 8.20029C41.0337 8.22225 44.3832 11.584 44.3668 14.7982C44.3544 17.2731 42.6427 18.8053 39.9158 18.7873Z" fill="white"/>
<path fill-rule="evenodd" clip-rule="evenodd" d="M18.3976 35.4851C16.879 35.0651 15.3061 34.7779 13.8569 34.1883C12.4234 33.6049 11.3641 32.4528 11.3878 30.8012C11.411 29.189 12.5222 28.2374 13.959 27.7464C16.7644 26.7874 19.5743 26.8713 22.2268 28.2098C23.702 28.9548 24.8922 30.1182 24.5378 32.0113C24.1788 33.9338 22.5682 34.5622 20.9547 35.0245C20.1753 35.2481 19.3108 35.1771 18.4845 35.2402C18.4558 35.3218 18.427 35.4029 18.3976 35.4851Z" fill="white"/>
<path fill-rule="evenodd" clip-rule="evenodd" d="M47.7484 22.6754C51.0058 22.6557 52.4432 24.9802 51.0572 27.6009C49.8308 29.9209 46.7591 31.3304 44.5937 30.5668C42.5005 29.8286 41.7194 27.9957 42.7065 26.0079C43.7861 23.8349 45.6428 22.8365 47.7484 22.6754Z" fill="white"/>
<path fill-rule="evenodd" clip-rule="evenodd" d="M24.0802 42.5363C22.7793 42.172 21.7596 42.0385 20.8871 41.6094C18.9756 40.6685 18.8503 38.5427 20.6246 37.3473C22.7596 35.9091 25.1321 35.8049 27.4567 36.7109C29.4686 37.4948 29.7355 39.7117 27.9302 40.932C26.7591 41.7226 25.2777 42.056 24.0802 42.5363Z" fill="white"/>
<path fill-rule="evenodd" clip-rule="evenodd" d="M30.3937 8.37818C28.8756 7.89841 27.1695 7.57631 25.6746 6.8302C23.9894 5.98891 24.1017 4.54229 25.7259 3.59515C27.8253 2.37152 32.8684 2.63561 34.7826 4.06985C36.18 5.11554 36.1405 6.54583 34.5371 7.2576C33.3255 7.79536 31.9535 7.9733 30.3937 8.37818Z" fill="white"/>
<path fill-rule="evenodd" clip-rule="evenodd" d="M10.955 25.1842C11.0809 26.7108 10.4787 27.9283 9.09378 28.5105C7.62534 29.1271 6.39336 28.3483 5.49717 27.2475C4.34872 25.8363 3.59983 24.214 4.13878 22.3208C4.84874 19.8274 7.30592 19.0852 9.05427 20.9863C10.069 22.0888 10.6254 23.6115 11.3879 24.9444C11.244 25.0243 11.0995 25.1043 10.955 25.1842Z" fill="white"/>
<path fill-rule="evenodd" clip-rule="evenodd" d="M40.5478 1.88452C41.8447 2.52196 43.0044 2.87953 43.8673 3.59468C44.3837 4.02208 44.7957 5.13421 44.5942 5.70689C44.3882 6.29309 43.356 6.97107 42.7189 6.93897C41.5907 6.88266 40.352 6.52114 39.4231 5.89666C38.7758 5.46194 38.098 4.22986 38.2882 3.6172C38.506 2.9167 39.6691 2.50957 40.5478 1.88452Z" fill="white"/>
<path fill-rule="evenodd" clip-rule="evenodd" d="M7.33204 32.6679C6.78744 33.4383 6.42231 34.5008 5.80265 34.6771C5.19315 34.85 4.09549 34.3133 3.6316 33.7463C3.04016 33.0227 2.60166 31.9556 2.60279 31.0377C2.60391 30.3034 3.20438 29.287 3.83928 28.9362C4.2727 28.6963 5.45106 29.1924 5.8873 29.7054C6.52841 30.4606 6.80268 31.5237 7.33204 32.6679Z" fill="white"/>
<path fill-rule="evenodd" clip-rule="evenodd" d="M23.4826 2.6897C22.8595 2.29271 22.241 1.89797 21.6213 1.50436C22.241 1.04317 22.8014 0.353929 23.4933 0.178803C24.4284 -0.0577022 25.4911 -0.0441873 26.4499 0.12925C27.437 0.307755 27.5995 1.06964 26.6909 1.56574C25.7896 2.05789 24.7337 2.2668 23.4826 2.6897Z" fill="white"/>
<path fill-rule="evenodd" clip-rule="evenodd" d="M3.92662 16.5995C3.8668 18.398 2.64216 20.2123 1.70421 20.0907C1.34359 20.044 0.817053 19.3863 0.794479 18.9836C0.719985 17.6502 2.18673 15.6506 3.10041 15.7936C3.48925 15.855 3.79231 16.4598 3.92662 16.5995Z" fill="white"/>
<path fill-rule="evenodd" clip-rule="evenodd" d="M8.81688 9.12156C8.50536 8.26733 8.2356 7.86302 8.25761 7.4756C8.27341 7.19405 8.62274 6.82127 8.91507 6.68556C9.94727 6.20692 11.0173 5.81331 12.0732 5.38647C12.1375 5.70463 12.3638 6.20298 12.2408 6.31278C11.2549 7.1963 10.2018 8.00548 8.81688 9.12156Z" fill="white"/>
</svg>
